# xmcd
#
# Track frame offsets:
#	150
#	20963
#	38707
#	61191
#	81194
#	103757
#	122491
#	140626
#	156123
#	178268
#
# Disc length: 2667 seconds
#
# Revision: 2
# Processed by: cddbd v1.5.2PL0 Copyright (c) Steve Scherf et al.
# Submitted via: EZCDAudioConverter 8.0.2.1
#
DISCID=870a690a
DTITLE=Hoàng Lê Vi - Vol 03. Vì Cớ Làm Sao?
DYEAR=2007
DGENRE=Dance Pop
TTITLE0=Nửa trái tim tội nghiệp
TTITLE1=Điều anh chưa biết
TTITLE2=Vì Cớ Làm Sao?
TTITLE3=Nguyện thề đêm đông
TTITLE4=Con tim anh đã đổi thay
TTITLE5=Yêu ngu ngơ
TTITLE6=Tầm gửi
TTITLE7=Cũng đã muộn rồi
TTITLE8=Dạ khúc
TTITLE9=Chén đắng
EXTD=
EXTT0=
EXTT1=
EXTT2=
EXTT3=
EXTT4=
EXTT5=
EXTT6=
EXTT7=
EXTT8=
EXTT9=
PLAYORDER=
